<svg width="40" height="41" viewBox="0 0 40 41" fill="none" xmlns="http://www.w3.org/2000/svg">
<path d="M19.9214 1.2832C30.4083 1.2832 38.9761 10.029 38.9761 20.7822C38.9761 31.5354 30.4083 40.2812 19.9214 40.2812C9.43469 40.281 0.867676 31.5353 0.867676 20.7822C0.867676 10.0292 9.43469 1.28344 19.9214 1.2832ZM23.8901 25.792C20.7199 26.7144 17.4128 29.0149 14.8032 31.3262L14.2905 31.7881C12.9957 32.9664 11.9501 34.0857 11.1108 35.002L10.6987 35.4521L11.2212 35.7676C13.7667 37.3019 16.7232 38.2041 19.9126 38.2041C22.3061 38.2041 24.5637 37.6986 26.6255 36.8076L26.9741 36.6572L26.9224 36.2812C26.4381 32.7077 25.584 29.3018 24.5034 26.1123L24.3501 25.6582L23.8901 25.792ZM31.0171 24.9053L30.1597 24.9268H30.1538C29.1428 24.9755 28.0665 25.0728 26.9722 25.2188L26.3774 25.2988L26.563 25.8691C27.4867 28.713 28.251 31.7256 28.7446 34.8594L28.8687 35.6484L29.5239 35.1914C32.7099 32.9728 35.12 29.6759 36.2427 25.8057L36.4077 25.2363L35.8188 25.1699C34.5413 25.0257 32.9641 24.8805 31.0171 24.9053ZM20.0864 16.7725C12.3737 18.9636 5.57893 18.8969 3.4624 18.8115L2.97998 18.792L2.94287 19.2725C2.90552 19.7596 2.8667 20.2601 2.8667 20.792C2.86674 26.0256 5.13082 30.6977 8.70166 33.8945L9.07471 34.2285L9.40771 33.8555C10.191 32.9793 11.2083 31.8928 12.4282 30.7432L12.9634 30.2471L12.9653 30.2451C15.7116 27.7135 19.2453 25.035 23.0942 23.8662L23.6108 23.709L23.4146 23.2061C22.553 20.9984 21.6259 18.946 20.6704 17.0303L20.4849 16.6592L20.0864 16.7725ZM32.0474 9.4082C30.3913 11.4293 27.5164 14.0547 22.9644 15.8359L22.4575 16.0342L22.6978 16.5225C23.6792 18.5205 24.631 20.6499 25.4985 22.9492L25.6421 23.3281L26.0425 23.2666C29.3347 22.7639 32.3781 22.7634 34.6772 22.9434V22.9443C35.3549 23.0005 35.7418 23.0646 36.2944 23.1426L36.8062 23.2148L36.8618 22.7012C36.9293 22.0706 36.9673 21.4368 36.9673 20.7822C36.9673 16.4287 35.39 12.4604 32.8169 9.40332L32.4292 8.94238L32.0474 9.4082ZM12.7515 4.99414C8.25543 7.11499 4.84903 11.1664 3.50439 16.1133L3.33838 16.7236L3.97119 16.7441C6.44709 16.8221 12.3657 16.705 18.9233 14.9482L19.5415 14.7822L19.231 14.2227C16.6878 9.63944 14.5491 6.70594 13.3638 5.14453L13.1187 4.82129L12.7515 4.99414ZM19.9214 3.36035C18.5023 3.36039 17.1264 3.55909 15.8237 3.88477L15.0972 4.06641L15.5435 4.66797C16.9341 6.53884 18.9323 9.36472 21.3247 13.79L21.5308 14.1719L21.938 14.0205C26.4651 12.3395 29.1786 9.76846 30.6636 7.90234L30.9692 7.51758L30.5903 7.20508C27.675 4.79802 23.9721 3.36035 19.9214 3.36035Z" fill="#070707" stroke="#070707"/>
</svg>
