<svg width="40" height="41" viewBox="0 0 40 41" fill="none" xmlns="http://www.w3.org/2000/svg">
<path d="M28.5706 1.2832C34.5351 1.2832 39.4182 6.26817 39.4182 12.3955V29.1689C39.4182 35.2965 34.5352 40.2812 28.5803 40.2812H12.1663C6.20037 40.2812 1.30983 35.3048 1.30981 29.1885V12.4053C1.30981 6.27849 6.20115 1.29297 12.1663 1.29297H12.6663V1.2832H28.5706ZM12.1663 3.36914C7.40709 3.36914 3.57433 7.15275 3.33032 11.9463L3.3186 12.4131V29.1982C3.3187 34.1843 7.24577 38.2148 12.1663 38.2148H28.5803C33.4835 38.2148 37.4094 34.1826 37.4094 29.1787V12.4053C37.4094 7.40104 33.4828 3.36914 28.5706 3.36914H12.1663ZM20.3733 10.5205C25.8777 10.5205 30.4026 15.1313 30.4026 20.7871C30.4025 26.4428 25.8777 31.0527 20.3733 31.0527C14.8689 31.0527 10.344 26.4428 10.344 20.7871C10.344 15.1314 14.8689 10.5205 20.3733 10.5205ZM20.3733 12.5967C15.9127 12.5967 12.3528 16.2535 12.3528 20.7871C12.3528 25.3206 15.9127 28.9775 20.3733 28.9775C24.8339 28.9775 28.3938 25.3207 28.3938 20.7871C28.3938 16.2535 24.8339 12.5967 20.3733 12.5967ZM32.4065 7.44531C32.9565 7.44531 33.4102 7.89273 33.4104 8.48242C33.4104 9.07235 32.9566 9.52051 32.4065 9.52051C31.8564 9.52042 31.4026 9.07229 31.4026 8.48242C31.4028 7.89279 31.8566 7.4454 32.4065 7.44531Z" fill="#070707" stroke="#070707"/>
</svg>
