<svg width="41" height="41" viewBox="0 0 41 41" fill="none" xmlns="http://www.w3.org/2000/svg">
<path d="M34.5749 0.642578H6.17579C2.93143 0.642578 0.291992 3.27494 0.291992 6.51061V34.8336C0.291992 38.0693 2.93143 40.7017 6.17579 40.7017H34.5749C37.8193 40.7017 40.4587 38.0693 40.4587 34.8336V6.51061C40.4587 3.27494 37.8193 0.642578 34.5749 0.642578ZM38.1052 34.8336C38.1052 36.775 36.5215 38.3544 34.5749 38.3544H6.17579C4.22923 38.3544 2.64551 36.775 2.64551 34.8336V6.51061C2.64551 4.56927 4.22923 2.98979 6.17579 2.98979H34.5749C36.5215 2.98979 38.1052 4.56927 38.1052 6.51061V34.8336Z" fill="#070707" stroke="#070707" stroke-width="0.5"/>
<path d="M26.625 16.0098C27.4063 16.0325 28.1519 16.1896 28.8369 16.5498L29.127 16.7168C29.982 17.2549 30.5449 18.0113 30.9062 18.916L31.0488 19.3125C31.3211 20.155 31.4112 21.0251 31.4121 21.9062V29.5225L31.4053 29.6631H27.124V22.4766L27.1162 22.1045C27.1027 21.7953 27.0698 21.4883 27.0049 21.1836L26.9619 21.001C26.7026 19.9953 26.0117 19.521 25.2744 19.418C24.5843 19.3216 23.853 19.5501 23.3965 19.9727L23.3096 20.0596C22.8628 20.5375 22.569 21.0793 22.5566 21.749L22.5449 22.2236L22.5439 29.4717V29.6621H18.2715V16.3281H22.542V18.1152L22.5518 18.1191C22.5625 18.1238 22.5744 18.1299 22.5859 18.1348L22.5967 18.1387L22.6045 18.1289L22.6973 18.0049C23.0739 17.4817 23.4986 17.0109 24.0381 16.6621L24.2764 16.5205C24.9171 16.1708 25.6035 16.024 26.3174 16.0088L26.625 16.0098Z" fill="#070707" stroke="#070707" stroke-width="0.0306072"/>
<path d="M15.6111 16.3242V29.6709H11.3611V16.3242H15.6111Z" fill="#070707" stroke="#070707" stroke-width="0.0306072"/>
<path d="M13.6689 9.67188C14.3391 9.67096 14.9111 9.90807 15.3154 10.3145C15.7197 10.7208 15.9576 11.297 15.96 11.9736L15.9492 12.2197C15.8993 12.7832 15.6714 13.265 15.3125 13.6182C14.9025 14.0216 14.3208 14.2584 13.6377 14.2588L13.3926 14.248C12.1902 14.1395 11.3559 13.2242 11.3535 11.9688L11.3643 11.7217C11.4659 10.5935 12.2788 9.78649 13.4199 9.68262L13.6689 9.67188Z" fill="#070707" stroke="#070707" stroke-width="0.0306072"/>
</svg>
