<svg width="22" height="20" viewBox="0 0 22 20" fill="none" xmlns="http://www.w3.org/2000/svg">
<path d="M10.3116 0.85958C10.6114 -0.0606967 11.9134 -0.0606959 12.2132 0.859581L13.9643 6.23398C14.0984 6.64561 14.4822 6.92418 14.9151 6.92418H20.5759C21.5453 6.92418 21.9476 8.16521 21.1626 8.73398L16.5877 12.0486C16.2362 12.3033 16.0892 12.7555 16.2236 13.1682L17.9722 18.5349C18.2722 19.4557 17.2189 20.2227 16.4347 19.6544L11.8491 16.3321C11.4991 16.0784 11.0257 16.0784 10.6757 16.3321L6.09014 19.6544C5.30588 20.2227 4.25259 19.4557 4.55261 18.5348L6.30119 13.1682C6.43564 12.7555 6.28856 12.3033 5.9371 12.0486L1.36223 8.73398C0.577221 8.16521 0.979552 6.92418 1.94895 6.92418H7.6097C8.04263 6.92418 8.42639 6.64561 8.56051 6.23398L10.3116 0.85958Z" fill="#070707"/>
</svg>
